<svg xmlns="http://www.w3.org/2000/svg" viewBox="0 0 24 24" width="24" height="24"><path fill="#e9edf5" d="M12 1.5c-2.1 0-3.4 1.6-3.4 3.9 0 1.2.1 2.2-.2 3.2-.4 1.1-1.3 2.1-2 3.3-.7 1.2-1.3 2.6-1.1 4 .1.5-.2.8-.5 1.2-.3.3-.5.7-.4 1.2.1.4.5.6.9.7.5.2 1.2.3 1.7.6.5.4 1.1.7 1.8.7.6 0 1.1-.3 1.4-.8.5 0 1.1-.2 1.9-.2.7 0 1.5.2 2 .2.3.5.9.8 1.5.8.7 0 1.4-.4 1.8-.8.5-.4 1.1-.5 1.6-.7.4-.2.8-.4.8-.9 0-.4-.2-.7-.5-1-.3-.4-.7-.7-.7-1.3-.1-1.5-.7-3-1.4-4.1-.7-1.2-1.5-2.1-1.9-3.1-.4-1-.3-2-.3-3.1 0-2.4-1.1-3.8-3-3.8z"/><path fill="#f5bf22" d="M10.9 6.2c-.5 0-.8.4-.8.9s.3 1 .8 1 .8-.5.8-1-.3-.9-.8-.9zm2.4 0c-.5 0-.9.4-.9.9s.4 1 .9 1c.4 0 .8-.5.8-1s-.4-.9-.8-.9zm-3.6 3.4 1 4.6 1.4 4.3 1.6-4.3.8-4.6-2.7-1z" opacity=".9"/><path fill="#05060a" d="M11 6.6c-.3 0-.5.2-.5.5s.2.5.5.5.4-.2.4-.5-.2-.5-.4-.5zm2.2 0c-.3 0-.5.2-.5.5s.2.5.5.5.4-.2.4-.5-.2-.5-.4-.5z"/></svg>
